<?xml version="1.0" encoding="utf-8"?>
<!-- Generator: Adobe Illustrator 19.0.0, SVG Export Plug-In . SVG Version: 6.00 Build 0)  -->
<svg version="1.1" xmlns="http://www.w3.org/2000/svg" xmlns:xlink="http://www.w3.org/1999/xlink" x="0px" y="0px"
	 viewBox="0 0 500 500" style="enable-background:new 0 0 500 500;" xml:space="preserve">
<style type="text/css">
	.st0{fill:#FFFFFF;}
	.st1{display:none;}
	.st2{display:inline;}
</style>
<g id="blue">
	<g id="XMLID_9_">
		<path id="XMLID_10_" class="st0" d="M141.8,415c-18.4-5.6-32.3-14.8-41.6-27.7c-9.3-12.8-14-29.8-14-50.8V303
			c0-27.2-11-40.8-33.1-40.8v-24.4c22.1,0,33.1-13.6,33.1-40.7v-35c0.2-20.5,4.9-37.1,14-49.7s23-21.8,41.6-27.5l5.9,19.3
			c-21.8,7.5-32.6,27.1-32.6,58.7v34c0,25.4-8.7,43.1-26.1,53.1c17.4,10.1,26.1,28,26.1,53.6v34.6c0.3,30.8,11.2,49.9,32.6,57.3
			L141.8,415z"/>
		<path id="XMLID_14_" class="st0" d="M233.5,395.7c21.1-7.3,32.1-25.8,32.8-55.6v-37c0-25.9,9.4-43.5,28.3-52.9
			c-18.8-9.2-28.3-26.8-28.3-52.9V163c0-31.6-10.9-51.2-32.6-58.7l5.9-19.3c18.4,5.6,32.3,14.7,41.5,27.3s14,29.3,14.1,50v35.3
			c0,26.8,11,40.2,33.1,40.2v24.4c-22.1,0-33.1,13.6-33.1,40.8v34c0,21.1-4.7,37.9-14.1,50.6c-9.4,12.7-23.2,21.8-41.5,27.4
			L233.5,395.7z"/>
		<path id="XMLID_16_" class="st0" d="M446.5,250.9c0,23.2-3,45.5-9.1,66.8c-6.1,21.3-15.4,40.9-28,58.9
			c-12.5,18-25.7,30.8-39.4,38.4l-6.1-17.6c16-12.3,28.9-31.4,38.6-57.2c9.7-25.9,14.7-54.6,14.9-86.1v-5c0-21.9-2.3-42.2-6.9-61
			c-4.6-18.8-11-35.6-19.1-50.5c-8.2-14.9-17.4-26.5-27.6-34.8L370,85c13.7,7.6,26.8,20.3,39.3,38.1c12.4,17.8,21.8,37.4,28,58.9
			S446.5,226.4,446.5,250.9z"/>
		<circle id="XMLID_2_" class="st0" cx="373.1" cy="250" r="24.9"/>
	</g>
</g>
<g id="white" class="st1">
	<g id="XMLID_1_" class="st2">
		<path id="XMLID_12_" class="st0" d="M141.8,415c-18.4-5.6-32.3-14.8-41.6-27.7c-9.3-12.8-14-29.8-14-50.8V303
			c0-27.2-11-40.8-33.1-40.8v-24.4c22.1,0,33.1-13.6,33.1-40.7v-35c0.2-20.5,4.9-37.1,14-49.7s23-21.8,41.6-27.5l5.9,19.3
			c-21.8,7.5-32.6,27.1-32.6,58.7v34c0,25.4-8.7,43.1-26.1,53.1c17.4,10.1,26.1,28,26.1,53.6v34.6c0.3,30.8,11.2,49.9,32.6,57.3
			L141.8,415z"/>
		<path id="XMLID_8_" class="st0" d="M233.5,395.7c21.1-7.3,32.1-25.8,32.8-55.6v-37c0-25.9,9.4-43.5,28.3-52.9
			c-18.8-9.2-28.3-26.8-28.3-52.9V163c0-31.6-10.9-51.2-32.6-58.7l5.9-19.3c18.4,5.6,32.3,14.7,41.5,27.3s14,29.3,14.1,50v35.3
			c0,26.8,11,40.2,33.1,40.2v24.4c-22.1,0-33.1,13.6-33.1,40.8v34c0,21.1-4.7,37.9-14.1,50.6c-9.4,12.7-23.2,21.8-41.5,27.4
			L233.5,395.7z"/>
		<path id="XMLID_6_" class="st0" d="M446.5,250.9c0,23.2-3,45.5-9.1,66.8c-6.1,21.3-15.4,40.9-28,58.9
			c-12.5,18-25.7,30.8-39.4,38.4l-6.1-17.6c16-12.3,28.9-31.4,38.6-57.2c9.7-25.9,14.7-54.6,14.9-86.1v-5c0-21.9-2.3-42.2-6.9-61
			c-4.6-18.8-11-35.6-19.1-50.5c-8.2-14.9-17.4-26.5-27.6-34.8L370,85c13.7,7.6,26.8,20.3,39.3,38.1c12.4,17.8,21.8,37.4,28,58.9
			S446.5,226.4,446.5,250.9z"/>
		<circle id="XMLID_5_" class="st0" cx="373.1" cy="250" r="24.9"/>
	</g>
</g>
<g id="black" class="st1">
	<g id="XMLID_21_" class="st2">
		<path id="XMLID_29_" d="M141.8,415c-18.4-5.6-32.3-14.8-41.6-27.7c-9.3-12.8-14-29.8-14-50.8V303c0-27.2-11-40.8-33.1-40.8v-24.4
			c22.1,0,33.1-13.6,33.1-40.7v-35c0.2-20.5,4.9-37.1,14-49.7s23-21.8,41.6-27.5l5.9,19.3c-21.8,7.5-32.6,27.1-32.6,58.7v34
			c0,25.4-8.7,43.1-26.1,53.1c17.4,10.1,26.1,28,26.1,53.6v34.6c0.3,30.8,11.2,49.9,32.6,57.3L141.8,415z"/>
		<path id="XMLID_27_" d="M233.5,395.7c21.1-7.3,32.1-25.8,32.8-55.6v-37c0-25.9,9.4-43.5,28.3-52.9c-18.8-9.2-28.3-26.8-28.3-52.9
			V163c0-31.6-10.9-51.2-32.6-58.7l5.9-19.3c18.4,5.6,32.3,14.7,41.5,27.3s14,29.3,14.1,50v35.3c0,26.8,11,40.2,33.1,40.2v24.4
			c-22.1,0-33.1,13.6-33.1,40.8v34c0,21.1-4.7,37.9-14.1,50.6c-9.4,12.7-23.2,21.8-41.5,27.4L233.5,395.7z"/>
		<path id="XMLID_25_" d="M446.5,250.9c0,23.2-3,45.5-9.1,66.8c-6.1,21.3-15.4,40.9-28,58.9c-12.5,18-25.7,30.8-39.4,38.4l-6.1-17.6
			c16-12.3,28.9-31.4,38.6-57.2c9.7-25.9,14.7-54.6,14.9-86.1v-5c0-21.9-2.3-42.2-6.9-61c-4.6-18.8-11-35.6-19.1-50.5
			c-8.2-14.9-17.4-26.5-27.6-34.8L370,85c13.7,7.6,26.8,20.3,39.3,38.1c12.4,17.8,21.8,37.4,28,58.9S446.5,226.4,446.5,250.9z"/>
		<circle id="XMLID_24_" cx="373.1" cy="250" r="24.9"/>
	</g>
</g>
</svg>
